<?xml version="1.0" encoding="UTF-8" standalone="no"?>
<!DOCTYPE svg PUBLIC "-//W3C//DTD SVG 1.1//EN" "http://www.w3.org/Graphics/SVG/1.1/DTD/svg11.dtd">
<svg>
<metadata>
Created by FontForge 20120731 at Fri Feb  1 15:03:19 2019
 By www
Copyright (C) 2004 Hoefler &amp; Frere-Jones Typography, Inc. www.typography.com
</metadata>
<defs>
<font id="Whitney-Bold" horiz-adv-x="454">
  <font-face font-family="Whitney" font-weight="700" font-stretch="normal" units-per-em="1000" panose-1="0 0 0 0 0 0 0 0 0 0" ascent="800" descent="-200" x-height="490" cap-height="690" bbox="-79 -200 998 954" underline-thickness="20" underline-position="-123" stemh="134" stemv="151" unicode-range="U+0020-FB02"/>
<missing-glyph horiz-adv-x="500"/>
    <glyph glyph-name=".notdef" horiz-adv-x="500"/>
    <glyph glyph-name="space" unicode=" " horiz-adv-x="209"/>
    <glyph glyph-name="exclam" unicode="!" horiz-adv-x="295" d="M242 690l-47 -432l-92 -20l-49 452h188zM229 0h-163v172h163v-172z"/>
    <glyph glyph-name="quotedbl" unicode="&quot;" horiz-adv-x="520" d="M473 676l-44 -300l-96 21l-41 279h181zM228 676l-44 -300l-97 21l-40 279h181z"/>
    <glyph glyph-name="numbersign" unicode="#" horiz-adv-x="673" d="M236 141l-23 -150l-91 21l20 129h-104v127h124l21 140h-109l-21 127h150l23 143h96l-23 -143h137l24 150l92 -21l-21 -129h104v-127h-123l-23 -140h111l20 -127h-151l-23 -143h-95l22 143h-137zM278 411l-23 -146h140l23 146h-140z"/>
    <glyph glyph-name="dollar" unicode="$" horiz-adv-x="549" d="M366 673c45 -8 86 -23 122 -42l-21 -123c-37 22 -79 40 -124 49l-22 -146c128 -40 191 -90 191 -208c0 -142 -102 -208 -247 -208h-1l-17 -117l-73 16l15 107c-58 9 -111 27 -160 52l19 122c60 -32 112 -51 165 -59l26 171c-123 38 -192 82 -192 199 c0 122 86 195 235 195h10l11 74l73 -16zM276 112c66 1 101 27 101 74c0 36 -17 59 -78 82zM280 565h-11c-61 0 -87 -24 -87 -62c0 -33 17 -52 78 -73z"/>
    <glyph glyph-name="percent" unicode="%" horiz-adv-x="894" d="M373 486c0 -129 -74 -200 -167 -200c-94 0 -168 70 -168 199c0 128 75 199 168 199s167 -70 167 -198zM708 663l-433 -670l-89 20l432 670zM268 486c0 71 -21 114 -62 114c-43 0 -64 -42 -64 -115c0 -71 22 -114 64 -114s62 43 62 115zM856 191 c0 -128 -75 -199 -168 -199c-94 0 -167 70 -167 198c0 129 74 200 167 200c94 0 168 -70 168 -199zM751 191c0 71 -22 114 -63 114c-43 0 -63 -43 -63 -115c0 -71 22 -114 63 -114c42 0 63 43 63 115z"/>
    <glyph glyph-name="ampersand" unicode="&amp;" horiz-adv-x="662" d="M673 16l-169 -22l-60 67c-53 -48 -117 -72 -189 -72c-138 0 -228 69 -228 189c0 97 55 157 136 204c-39 50 -57 88 -57 148c0 105 77 173 203 173c76 0 140 -19 185 -44l-22 -134c-52 28 -102 47 -147 47c-41 0 -61 -23 -61 -52c0 -26 12 -47 41 -79l141 -161 c13 37 23 80 29 132l128 -28c-12 -83 -34 -153 -66 -210zM370 148l-130 146c-38 -29 -57 -60 -57 -98c0 -51 37 -86 98 -86c31 0 61 12 89 38z"/>
    <glyph glyph-name="quoteright" unicode="’" horiz-adv-x="258" d="M235 690l-100 -315l-92 21l21 294h171z"/>
    <glyph glyph-name="parenleft" unicode="(" horiz-adv-x="408" d="M389 -67l-116 -27c-137 107 -228 221 -228 404c0 196 108 328 298 416l15 -102c-95 -82 -144 -171 -144 -312c0 -153 52 -251 175 -379z"/>
    <glyph glyph-name="parenright" unicode=")" horiz-adv-x="408" d="M362 318c0 -197 -107 -328 -297 -417l-15 103c94 82 145 170 145 312c0 152 -53 250 -176 379l116 27c137 -108 227 -222 227 -404z"/>
    <glyph glyph-name="asterisk" unicode="*" horiz-adv-x="438" d="M407 546l-107 -69l47 -119l-31 -20l-97 80l-98 -80l-30 20l47 119l-107 69l11 35l128 -7l29 122h39l30 -122l128 7z"/>
    <glyph glyph-name="plus" unicode="+" horiz-adv-x="572" d="M518 279h-171v-177h-122v177h-171v118h171v177h122v-177h171v-118z"/>
    <glyph glyph-name="comma" unicode="," horiz-adv-x="258" d="M237 172l-125 -320l-90 21l44 299h171z"/>
    <glyph glyph-name="hyphen" unicode="-" horiz-adv-x="354" d="M314 219h-273v144h273v-144z"/>
    <glyph glyph-name="period" unicode="." horiz-adv-x="258" d="M211 0h-162v172h162v-172z"/>
    <glyph glyph-name="slash" unicode="/" horiz-adv-x="530" d="M518 672l-430 -799l-124 27l430 799z"/>
    <glyph glyph-name="zero" unicode="0" horiz-adv-x="634" d="M598 338c0 -226 -112 -351 -280 -351c-169 0 -282 125 -282 351s113 351 282 351c168 0 280 -125 280 -351zM433 338c0 144 -37 224 -115 224s-116 -80 -116 -224s38 -224 116 -224s115 80 115 224z"/>
    <glyph glyph-name="one" unicode="1" horiz-adv-x="407" d="M339 0h-168v520l-136 -53l-18 130l173 80h149v-677z"/>
    <glyph glyph-name="two" unicode="2" horiz-adv-x="552" d="M517 0h-477v119l233 233c45 46 68 78 68 123c0 46 -32 72 -87 72c-60 0 -121 -27 -179 -69l-20 142c58 39 128 67 224 67c139 0 225 -73 225 -194c0 -92 -46 -152 -129 -230l-135 -131h256z"/>
    <glyph glyph-name="three" unicode="3" horiz-adv-x="545" d="M508 189c0 -131 -109 -202 -255 -202c-87 0 -165 21 -222 53l21 131c56 -30 119 -50 186 -50c66 0 107 28 107 80c0 58 -41 87 -147 87h-41l-20 122h63c96 0 132 31 132 78c0 43 -32 67 -97 67c-62 0 -122 -22 -173 -56l-21 128c53 36 130 62 219 62 c151 0 237 -73 237 -178c0 -87 -49 -131 -119 -157c81 -26 130 -76 130 -165z"/>
    <glyph glyph-name="four" unicode="4" horiz-adv-x="610" d="M591 135h-95v-135h-157v135h-313v104l285 438h185v-429h95v-113zM339 248v268l-173 -268h173z"/>
    <glyph glyph-name="five" unicode="5" horiz-adv-x="555" d="M519 226c0 -156 -115 -239 -275 -239c-82 0 -151 19 -210 46l22 139c55 -27 119 -49 186 -49c70 0 121 33 121 95c0 55 -37 88 -103 88c-41 0 -71 -9 -97 -20l-103 23l23 367h399l21 -135h-294l-8 -120c23 6 54 12 96 12c131 0 222 -72 222 -207z"/>
    <glyph glyph-name="six" unicode="6" horiz-adv-x="577" d="M192 380c49 32 100 49 163 49c105 0 192 -66 192 -205c0 -143 -109 -237 -251 -237c-154 0 -260 99 -260 286c0 242 167 373 390 417l21 -132c-127 -29 -222 -82 -255 -178zM186 272c1 -113 48 -164 110 -164c58 0 96 40 96 106c0 65 -32 97 -95 97 c-38 0 -74 -14 -111 -39z"/>
    <glyph glyph-name="seven" unicode="7" horiz-adv-x="541" d="M505 547l-250 -554l-159 28l237 516h-283l-21 139h476v-129z"/>
    <glyph glyph-name="eight" unicode="8" horiz-adv-x="589" d="M322 406c39 28 62 59 62 100c0 46 -36 76 -91 76c-54 0 -86 -32 -86 -74c0 -43 29 -68 115 -102zM260 303c-43 -29 -72 -66 -72 -111c0 -57 47 -91 109 -91c56 0 100 32 100 83c0 53 -32 77 -137 119zM156 352c-62 37 -99 85 -99 153c0 116 103 184 242 184 c144 0 234 -73 234 -174c0 -65 -39 -117 -102 -157c81 -40 122 -90 122 -172c0 -116 -98 -199 -259 -199c-170 0 -259 87 -259 189c0 73 46 134 121 176z"/>
    <glyph glyph-name="nine" unicode="9" horiz-adv-x="577" d="M383 287c-49 -31 -100 -49 -157 -49c-113 0 -196 67 -196 209c0 149 108 242 250 242c154 0 261 -99 261 -286c0 -243 -169 -375 -400 -417l-19 132c131 25 226 76 261 169zM391 393v2c0 121 -47 173 -110 173c-57 0 -96 -40 -96 -110c0 -69 31 -102 96 -102 c38 0 73 12 110 37z"/>
    <glyph glyph-name="colon" unicode=":" horiz-adv-x="267" d="M215 320h-162v170h162v-170zM215 0h-162v170h162v-170z"/>
    <glyph glyph-name="semicolon" unicode=";" horiz-adv-x="267" d="M221 320h-162v170h162v-170zM232 170l-124 -318l-91 21l44 297h171z"/>
    <glyph glyph-name="less" unicode="&lt;" horiz-adv-x="572" d="M504 63l-447 222v106l447 222v-130l-298 -144l298 -145v-131z"/>
    <glyph glyph-name="equal" unicode="=" horiz-adv-x="590" d="M518 399h-445v120h445v-120zM518 158h-445v119h445v-119z"/>
    <glyph glyph-name="greater" unicode="&gt;" horiz-adv-x="572" d="M515 285l-447 -222v131l298 143l-298 145v131l447 -222v-106z"/>
    <glyph glyph-name="question" unicode="?" horiz-adv-x="506" d="M293 0h-162v172h162v-172zM270 285l-3 -33l-99 -23l-11 152l31 10c99 29 133 59 133 107c0 41 -30 66 -85 66c-63 0 -131 -30 -189 -71l-21 140c59 40 133 70 232 70c141 0 223 -71 223 -192c0 -116 -73 -182 -211 -226z"/>
    <glyph glyph-name="at" unicode="@" horiz-adv-x="835" d="M458 212l24 150c-11 3 -25 6 -39 6c-58 0 -108 -74 -108 -168c0 -39 15 -52 37 -52c24 0 47 16 86 64zM462 130c-48 -56 -89 -82 -138 -82c-61 0 -109 46 -109 131c0 167 104 282 231 282c58 0 117 -14 164 -33l-33 -214c-2 -14 -4 -33 -4 -51c0 -29 17 -55 62 -55 c66 0 117 74 117 203c0 200 -123 294 -294 294c-200 0 -376 -181 -376 -414c0 -212 124 -296 297 -296c80 0 153 18 213 48l6 -36c-55 -27 -134 -47 -223 -47c-208 0 -337 111 -337 330c0 241 191 451 424 451c200 0 334 -120 334 -329c0 -160 -72 -264 -198 -264 c-64 0 -117 32 -136 82z"/>
    <glyph glyph-name="A" unicode="A" horiz-adv-x="702" d="M689 21l-172 -28l-52 150h-237l-48 -143h-167l248 693h188zM424 277l-78 240l-78 -240h156z"/>
    <glyph glyph-name="B" unicode="B" horiz-adv-x="588" d="M558 199c0 -133 -100 -199 -265 -199h-230v690h235c157 0 234 -67 234 -179c0 -75 -43 -121 -99 -146c75 -24 125 -72 125 -166zM380 492c0 46 -28 75 -94 75h-61v-156h57c64 0 98 31 98 81zM397 210c0 60 -39 91 -111 91h-61v-178h63c69 0 109 29 109 87z"/>
    <glyph glyph-name="C" unicode="C" horiz-adv-x="605" d="M569 39c-56 -31 -120 -51 -196 -51c-209 0 -335 140 -335 356c0 214 134 358 330 358c78 0 141 -17 191 -45l-24 -154c-42 32 -94 56 -154 56c-104 0 -172 -79 -172 -214c0 -138 77 -214 181 -214c56 0 105 19 157 48z"/>
    <glyph glyph-name="D" unicode="D" horiz-adv-x="705" d="M666 346c0 -205 -128 -346 -361 -346h-242v690h237c240 0 366 -139 366 -344zM494 345c0 145 -81 212 -198 212h-62v-424h62c122 0 198 64 198 212z"/>
    <glyph glyph-name="E" unicode="E" horiz-adv-x="535" d="M502 0h-439v690h430v-137h-262v-126h200l22 -141h-222v-149h271v-137z"/>
    <glyph glyph-name="F" unicode="F" horiz-adv-x="503" d="M476 547h-243v-140h180l24 -145h-204v-262h-170v690h413v-143z"/>
    <glyph glyph-name="G" unicode="G" horiz-adv-x="682" d="M630 60c-72 -47 -157 -73 -252 -73c-219 0 -340 144 -340 357c0 214 131 359 344 359c85 0 156 -20 211 -51l-23 -149c-52 33 -113 59 -184 59c-119 0 -177 -88 -177 -217c0 -130 60 -221 179 -221c38 0 65 7 93 22v123h-120l-20 127h289v-336z"/>
    <glyph glyph-name="H" unicode="H" horiz-adv-x="707" d="M644 0h-171v282h-239v-282h-171v690h171v-258h239v258h171v-690z"/>
    <glyph glyph-name="I" unicode="I" horiz-adv-x="305" d="M238 0h-171v690h171v-690z"/>
    <glyph glyph-name="J" unicode="J" horiz-adv-x="425" d="M368 210c0 -157 -99 -217 -231 -217c-39 0 -77 4 -95 9l-23 144c22 -6 43 -11 81 -11c60 0 96 25 96 102v453h172v-480z"/>
    <glyph glyph-name="K" unicode="K" horiz-adv-x="650" d="M650 21l-184 -28l-232 328v-321h-171v690h171v-295l217 295h190l-244 -319z"/>
    <glyph glyph-name="L" unicode="L" horiz-adv-x="485" d="M469 0h-406v690h171v-542h212z"/>
    <glyph glyph-name="M" unicode="M" horiz-adv-x="891" d="M848 0h-174l-30 459l-131 -460h-160l-131 460l-30 -459h-149l50 690h221l134 -475l135 475h215z"/>
    <glyph glyph-name="N" unicode="N" horiz-adv-x="705" d="M642 0h-148l-272 413v-413h-159v690h166l254 -386v386h159v-690z"/>
    <glyph glyph-name="O" unicode="O" horiz-adv-x="735" d="M697 346c0 -213 -130 -359 -331 -359c-198 0 -328 144 -328 357c0 214 130 359 330 359s329 -144 329 -357zM525 345c0 137 -58 224 -158 224s-158 -87 -158 -224s59 -224 158 -224c100 0 158 87 158 224z"/>
    <glyph glyph-name="P" unicode="P" horiz-adv-x="574" d="M556 465c0 -156 -111 -236 -278 -236h-44v-229h-171v690h222c168 0 271 -75 271 -225zM390 462c0 66 -39 99 -115 99h-43v-203h40c76 0 118 33 118 104z"/>
    <glyph glyph-name="Q" unicode="Q" horiz-adv-x="735" d="M697 356c0 -144 -62 -249 -161 -302l161 -51l-32 -146l-387 139c-159 57 -240 166 -240 348c0 214 131 359 330 359c198 0 329 -136 329 -347zM525 344c0 133 -58 225 -158 225s-158 -92 -158 -225c0 -134 59 -227 158 -227c101 0 158 93 158 227z"/>
    <glyph glyph-name="R" unicode="R" horiz-adv-x="615" d="M401 462c0 64 -40 99 -114 99h-55v-201h53c73 0 116 36 116 102zM441 276l165 -254l-175 -29l-151 244h-47v-237h-170v690h241c167 0 265 -76 265 -218c0 -95 -46 -160 -128 -196z"/>
    <glyph glyph-name="S" unicode="S" horiz-adv-x="553" d="M523 208c0 -150 -110 -216 -247 -216c-93 0 -171 20 -241 52l25 146c71 -38 150 -64 219 -64c49 0 83 21 83 62c0 39 -20 57 -117 94c-138 53 -198 98 -198 212c0 133 104 204 236 204c90 0 148 -17 208 -46l-26 -144c-62 36 -127 56 -180 56c-52 0 -77 -22 -77 -54 c0 -35 19 -52 105 -85c150 -55 210 -107 210 -217z"/>
    <glyph glyph-name="T" unicode="T" horiz-adv-x="609" d="M595 545h-207v-545h-172v545h-191v145h546z"/>
    <glyph glyph-name="U" unicode="U" horiz-adv-x="688" d="M633 274c0 -192 -124 -285 -291 -285c-169 0 -287 91 -287 284v417h172v-416c0 -89 40 -141 117 -141c78 0 117 51 117 139v418h172v-416z"/>
    <glyph glyph-name="V" unicode="V" horiz-adv-x="692" d="M679 690l-249 -693h-175l-242 672l186 28l154 -484l150 477h176z"/>
    <glyph glyph-name="W" unicode="W" horiz-adv-x="990" d="M972 690l-188 -690h-173l-119 445l-119 -445h-172l-182 668l185 29l104 -439l112 432h172l112 -432l99 432h169z"/>
    <glyph glyph-name="X" unicode="X" horiz-adv-x="661" d="M230 351l-200 317l182 29s125 -217 125 -218l119 211h176l-201 -326c0 1 217 -342 217 -342l-183 -29l-142 243l-136 -236h-175z"/>
    <glyph glyph-name="Y" unicode="Y" horiz-adv-x="672" d="M666 690l-248 -436v-254h-172v252l-238 420l182 25l150 -287l147 280h179z"/>
    <glyph glyph-name="Z" unicode="Z" horiz-adv-x="613" d="M580 0h-540v124l322 430h-287l-21 136h517v-124l-322 -430h309z"/>
    <glyph glyph-name="bracketleft" unicode="[" horiz-adv-x="418" d="M383 -104h-312v794h307v-92h-162v-609h151z"/>
    <glyph glyph-name="backslash" unicode="\" horiz-adv-x="530" d="M566 -101l-125 -26l-430 799l125 27z"/>
    <glyph glyph-name="bracketright" unicode="]" horiz-adv-x="418" d="M347 -104h-307v93h162v609h-152l-15 92h312v-794z"/>
    <glyph glyph-name="asciicircum" unicode="^" d="M394 560l-89 -17l-77 62l-74 -58h-96l102 147h138z"/>
    <glyph glyph-name="underscore" unicode="_" d="M456 -104h-458v70h458v-70z"/>
    <glyph glyph-name="quoteleft" unicode="‘" horiz-adv-x="258" d="M216 678l-22 -294h-171l101 315z"/>
    <glyph glyph-name="a" unicode="a" horiz-adv-x="507" d="M459 0h-134l-10 61c-40 -42 -87 -71 -154 -71c-78 0 -133 47 -133 136c0 115 88 169 280 186v9c0 43 -24 62 -74 62c-55 0 -106 -14 -158 -37l-18 114c56 23 119 38 199 38c135 0 202 -45 202 -170v-328zM308 135v104c-103 -16 -131 -50 -131 -93c0 -31 19 -48 47 -48 c29 0 57 13 84 37z"/>
    <glyph glyph-name="b" unicode="b" horiz-adv-x="541" d="M510 258c0 -182 -97 -264 -248 -264c-79 0 -153 13 -210 35v669l151 24v-286c31 32 73 64 131 64c100 0 176 -76 176 -242zM359 248c0 82 -30 117 -73 117c-32 0 -58 -19 -83 -47v-194c20 -6 32 -9 55 -9c59 0 101 36 101 133z"/>
    <glyph glyph-name="c" unicode="c" horiz-adv-x="451" d="M421 35c-49 -30 -98 -44 -156 -44c-141 0 -237 92 -237 250c0 173 110 257 243 257c59 0 106 -14 146 -37l-20 -129c-39 25 -71 36 -111 36c-61 0 -105 -41 -105 -123c0 -84 49 -125 110 -125c36 0 70 11 112 38z"/>
    <glyph glyph-name="d" unicode="d" horiz-adv-x="544" d="M492 0h-134l-10 64c-33 -37 -78 -74 -141 -74c-100 0 -177 76 -177 241c0 187 99 262 207 262c45 0 76 -6 104 -16v221l151 24v-722zM341 174v187c-22 10 -39 14 -71 14c-50 0 -88 -39 -88 -133c0 -84 32 -118 75 -118c32 0 58 21 84 50z"/>
    <glyph glyph-name="e" unicode="e" horiz-adv-x="505" d="M476 246c0 -15 -1 -31 -3 -39h-294c8 -77 54 -107 120 -107c54 0 107 20 161 51l15 -106c-53 -34 -118 -55 -195 -55c-147 0 -252 78 -252 253c0 160 98 257 231 257c150 0 217 -112 217 -254zM332 290c-5 74 -31 112 -77 112c-42 0 -72 -37 -77 -112h154z"/>
    <glyph glyph-name="f" unicode="f" horiz-adv-x="341" d="M346 592c-15 2 -33 4 -54 4c-41 0 -60 -20 -60 -60v-46h89l18 -123h-107v-367h-151v367h-68v123h68v61c0 118 73 162 186 162c24 0 44 -3 61 -5z"/>
    <glyph glyph-name="g" unicode="g" horiz-adv-x="534" d="M155 9c-20 -20 -29 -38 -29 -55c0 -34 38 -58 126 -58c79 0 124 26 124 58c0 23 -18 33 -71 39l-73 6c-36 3 -53 6 -77 10zM315 329c0 46 -27 80 -72 80c-44 0 -70 -36 -70 -83c0 -46 26 -78 70 -78c46 0 72 34 72 81zM392 451l116 44l19 -112s-85 -2 -86 -2 c6 -17 9 -34 9 -52c0 -106 -92 -169 -203 -169c-16 0 -31 1 -46 3c-8 -8 -12 -15 -12 -22c0 -14 12 -18 78 -26l90 -6c98 -10 157 -41 157 -115c0 -107 -117 -176 -274 -176c-138 0 -236 42 -236 117c0 43 26 75 80 105c-17 15 -27 35 -27 54c0 31 25 61 73 88 c-61 28 -94 79 -94 142c0 107 88 174 206 174c62 0 113 -18 150 -47z"/>
    <glyph glyph-name="h" unicode="h" horiz-adv-x="537" d="M488 0h-152v307c0 35 -14 59 -50 59c-29 0 -56 -17 -83 -44v-322h-151v698l151 24v-293c41 40 86 71 146 71c91 0 139 -57 139 -152v-348z"/>
    <glyph glyph-name="i" unicode="i" horiz-adv-x="262" d="M217 635c0 -49 -37 -81 -86 -81c-48 0 -86 32 -86 81c0 50 38 82 86 82c49 0 86 -32 86 -82zM207 0h-152v490h152v-490z"/>
    <glyph glyph-name="j" unicode="j" horiz-adv-x="263" d="M217 635c0 -49 -37 -81 -86 -81c-48 0 -86 32 -86 81c0 50 38 82 86 82c49 0 86 -32 86 -82zM207 -14c0 -122 -70 -168 -171 -168c-21 0 -44 2 -54 4l-18 118c11 -2 21 -4 36 -4c34 0 55 14 55 62v492h152v-504z"/>
    <glyph glyph-name="k" unicode="k" horiz-adv-x="505" d="M502 15l-157 -22l-142 235v-228h-151v698l151 24v-433l131 201h162l-154 -223z"/>
    <glyph glyph-name="l" unicode="l" horiz-adv-x="262" d="M207 0h-152v698l152 24v-722z"/>
    <glyph glyph-name="m" unicode="m" horiz-adv-x="811" d="M762 0h-152v307c0 35 -13 59 -48 59c-27 0 -53 -17 -80 -43v-323h-151v307c0 35 -13 59 -48 59c-28 0 -53 -17 -80 -43v-323h-151v490h133l11 -67c44 45 89 77 152 77c67 0 104 -33 122 -77c44 44 92 77 153 77c91 0 139 -57 139 -152v-348z"/>
    <glyph glyph-name="n" unicode="n" horiz-adv-x="537" d="M488 0h-152v307c0 35 -14 59 -50 59c-29 0 -56 -17 -83 -44v-322h-151v490h133l11 -67c44 43 91 77 153 77c91 0 139 -57 139 -152v-348z"/>
    <glyph glyph-name="o" unicode="o" horiz-adv-x="527" d="M499 245c0 -157 -101 -255 -237 -255c-135 0 -234 97 -234 254s100 256 235 256c136 0 236 -98 236 -255zM353 244c0 79 -32 132 -90 132s-89 -51 -89 -131c0 -79 32 -133 89 -133c58 0 90 53 90 132z"/>
    <glyph glyph-name="p" unicode="p" horiz-adv-x="544" d="M512 258c0 -186 -98 -263 -206 -263c-44 0 -75 8 -103 17v-175l-151 -23v676h133l10 -65c34 38 78 75 141 75c101 0 176 -76 176 -242zM361 248c0 82 -31 117 -74 117c-33 0 -59 -20 -84 -50v-186c21 -10 38 -15 69 -15c51 0 89 39 89 134z"/>
    <glyph glyph-name="q" unicode="q" horiz-adv-x="541" d="M489 -163l-151 -23v239c-32 -31 -73 -63 -131 -63c-101 0 -177 76 -177 241c0 182 98 265 248 265c79 0 153 -14 211 -35v-624zM338 171v194c-20 7 -33 9 -56 9c-59 0 -100 -36 -100 -132c0 -84 30 -118 73 -118c31 0 57 20 83 47z"/>
    <glyph glyph-name="r" unicode="r" horiz-adv-x="377" d="M368 346c-73 -5 -128 -34 -165 -74v-272h-151v490h132l16 -97c30 56 71 102 143 107z"/>
    <glyph glyph-name="s" unicode="s" horiz-adv-x="464" d="M435 151c0 -103 -71 -159 -201 -159c-78 0 -151 22 -202 49l18 115c58 -36 129 -58 185 -58c42 0 62 14 62 37c0 25 -14 36 -83 53c-123 32 -175 65 -175 157c0 91 68 152 188 152c66 0 130 -13 181 -36l-19 -115c-53 29 -114 46 -161 46c-36 0 -52 -13 -52 -32 c0 -20 14 -31 83 -50c130 -35 176 -68 176 -159z"/>
    <glyph glyph-name="t" unicode="t" horiz-adv-x="363" d="M344 3c-24 -7 -47 -10 -87 -10c-105 0 -178 38 -178 163v211h-65v123h65v146l150 23v-169h93l19 -123h-112v-187c0 -40 19 -58 60 -58c13 0 25 2 36 5z"/>
    <glyph glyph-name="u" unicode="u" horiz-adv-x="537" d="M485 0h-133l-11 67c-45 -44 -92 -77 -153 -77c-91 0 -139 56 -139 151v349h151v-307c0 -35 15 -60 51 -60c29 0 56 17 83 44v323h151v-490z"/>
    <glyph glyph-name="v" unicode="v" horiz-adv-x="507" d="M499 490l-171 -492h-151l-167 480l162 19l91 -310l89 303h147z"/>
    <glyph glyph-name="w" unicode="w" horiz-adv-x="725" d="M715 490l-137 -490h-144l-72 280l-71 -280h-145l-134 478l156 19l67 -293l69 286h136l70 -285l65 285h140z"/>
    <glyph glyph-name="x" unicode="x" horiz-adv-x="496" d="M481 12l-157 -19l-84 151l-81 -144h-144l149 242l-142 236l157 19l76 -139l75 132h143l-142 -230z"/>
    <glyph glyph-name="y" unicode="y" horiz-adv-x="510" d="M502 490l-174 -500c-44 -128 -104 -172 -211 -172c-30 0 -43 3 -57 6l-19 121c16 -5 31 -8 60 -8c34 0 64 13 80 47l6 15l-178 479l162 19l95 -309l90 302h146z"/>
    <glyph glyph-name="z" unicode="z" horiz-adv-x="467" d="M442 0h-413v114l214 258h-187l-18 118h392v-115l-214 -257h207z"/>
    <glyph glyph-name="braceleft" unicode="{" horiz-adv-x="506" d="M469 -104h-154c-103 0 -156 50 -156 131c0 47 13 88 13 132c0 67 -40 88 -107 88h-25l-15 93h41c66 0 106 21 106 87c0 45 -13 86 -13 132c0 81 53 131 156 131h150v-92h-89c-47 0 -68 -21 -68 -58c0 -40 13 -74 13 -119c0 -74 -41 -111 -114 -127v-2 c73 -16 114 -53 114 -127c0 -44 -13 -79 -13 -119c0 -36 21 -57 68 -57h78z"/>
    <glyph glyph-name="bar" unicode="|" horiz-adv-x="300" d="M214 -166l-127 -20v888l127 20v-888z"/>
    <glyph glyph-name="braceright" unicode="}" horiz-adv-x="506" d="M480 247h-41c-66 0 -107 -21 -107 -88c0 -44 14 -85 14 -132c0 -81 -52 -131 -156 -131h-150v93h90c46 0 68 20 68 56c0 40 -14 76 -14 120c0 74 41 111 114 127v2c-73 16 -114 53 -114 127c0 45 14 80 14 120c0 37 -22 57 -68 57h-80l-14 92h154c104 0 156 -50 156 -131 c0 -46 -14 -87 -14 -132c0 -66 41 -87 108 -87h25z"/>
    <glyph glyph-name="asciitilde" unicode="~" horiz-adv-x="409" d="M372 354c-14 -102 -45 -139 -96 -139c-25 0 -43 8 -71 20c-38 16 -50 21 -65 21s-24 -9 -32 -44l-71 15c13 104 45 140 96 140c25 0 42 -8 70 -20c39 -17 50 -21 66 -21c14 0 23 10 32 45z"/>
    <glyph glyph-name="exclamdown" unicode="¡" horiz-adv-x="295" d="M229 518h-163v172h163v-172zM242 0h-188l46 432l92 21z"/>
    <glyph glyph-name="cent" unicode="¢" horiz-adv-x="494" d="M299 88l-15 -98l-76 17l14 88c-113 24 -185 112 -185 242c0 160 112 250 258 250h3l15 98l76 -17l-15 -88c31 -6 57 -16 79 -29l-18 -121c-26 15 -55 27 -85 33l-39 -255c40 1 81 11 131 39l15 -116c-50 -28 -99 -41 -158 -43zM248 217l39 250c-69 -5 -107 -50 -107 -132 c0 -59 24 -100 68 -118z"/>
    <glyph glyph-name="sterling" unicode="£" horiz-adv-x="551" d="M141 399l36 115c37 122 106 175 227 175c46 0 81 -6 108 -15l-20 -135c-24 8 -44 11 -71 11c-52 0 -80 -23 -98 -84l-21 -67h124l20 -127h-184l-44 -142h277l21 -130h-469v101l54 171h-54v127h94z"/>
    <glyph glyph-name="fraction" unicode="⁄" horiz-adv-x="452" d="M535 766l-537 -874l-77 18l537 874z"/>
    <glyph glyph-name="yen" unicode="¥" horiz-adv-x="641" d="M397 222v-65h156v-76h-156v-81h-164v81h-148l-12 76h160v65h-155v76h134l-204 362l175 23l142 -283l137 276h172l-216 -378h128l12 -76h-161z"/>
    <glyph glyph-name="florin" unicode="ƒ" horiz-adv-x="445" d="M127 457l9 58c19 126 84 169 202 169c32 0 57 -2 80 -5v-124c-14 3 -30 5 -48 5c-45 0 -67 -21 -75 -70l-5 -33h92v-125h-112l-54 -332h-161l52 332h-74l18 125h76z"/>
    <glyph glyph-name="section" unicode="§" horiz-adv-x="569" d="M538 365c0 -33 -14 -70 -33 -95l-111 18c7 13 13 26 13 41c0 25 -18 37 -76 51l-78 19c-97 24 -152 58 -152 141c0 93 77 144 182 144c66 0 113 -9 162 -26l-16 -104c-48 20 -95 31 -136 31c-36 0 -51 -14 -51 -32c0 -20 14 -28 59 -40l86 -21c108 -27 151 -56 151 -127z M32 311c0 33 13 70 33 95l110 -18c-7 -13 -12 -26 -12 -41c0 -25 17 -37 76 -51l77 -19c97 -24 152 -58 152 -141c0 -93 -77 -144 -182 -144c-65 0 -112 9 -162 26l16 104c48 -20 96 -31 137 -31c35 0 51 14 51 32c0 20 -15 28 -59 40l-87 21c-107 27 -150 56 -150 127z"/>
    <glyph glyph-name="currency" unicode="¤" horiz-adv-x="609" d="M101 380h-76v77h88c35 139 136 230 290 230c69 0 126 -14 172 -39l-22 -133c-43 25 -81 39 -136 39c-65 0 -112 -34 -134 -97h194l13 -77h-222c-1 -14 -1 -28 -1 -42c0 -11 0 -23 1 -34h215v-77h-202c22 -71 72 -105 147 -105c48 0 92 14 137 39l21 -129 c-53 -26 -108 -43 -182 -43c-166 0 -265 86 -295 238h-78l-12 77h81c-1 11 -1 22 -1 33c0 15 1 29 2 43z"/>
    <glyph glyph-name="quotesingle" unicode="'" horiz-adv-x="278" d="M231 676l-43 -300l-101 21l-40 279h184z"/>
    <glyph glyph-name="quotedblleft" unicode="“" horiz-adv-x="481" d="M213 678l-22 -294h-168l101 315zM438 678l-21 -294h-168l100 315z"/>
    <glyph glyph-name="guillemotleft" unicode="«" horiz-adv-x="571" d="M535 490l-108 -245l102 -233l-98 -20l-170 253l166 245h108zM297 490l-109 -245l103 -233l-98 -20l-171 253l166 245h109z"/>
    <glyph glyph-name="guilsinglleft" unicode="‹" horiz-adv-x="333" d="M297 490l-109 -245l103 -233l-98 -20l-171 253l166 245h109z"/>
    <glyph glyph-name="guilsinglright" unicode="›" horiz-adv-x="333" d="M311 244l-166 -244h-109l108 244l-102 233l98 21z"/>
    <glyph glyph-name="fi" unicode="ﬁ" horiz-adv-x="604" d="M558 636c0 -49 -38 -81 -86 -81s-86 32 -86 81s38 81 86 81s86 -32 86 -81zM346 592c-15 2 -33 4 -54 4c-41 0 -60 -20 -60 -60v-46h89l18 -123h-107v-367h-151v367h-68v123h68v61c0 118 73 162 186 162c24 0 44 -3 61 -5zM548 0h-152v490h152v-490z"/>
    <glyph glyph-name="fl" unicode="ﬂ" horiz-adv-x="604" d="M548 0h-152v698l152 24v-722zM346 592c-15 2 -33 4 -54 4c-41 0 -60 -20 -60 -60v-46h89l18 -123h-107v-367h-151v367h-68v123h68v61c0 118 73 162 186 162c24 0 44 -3 61 -5z"/>
    <glyph glyph-name="endash" unicode="–" d="M413 220h-372v141h372v-141z"/>
    <glyph glyph-name="dagger" unicode="†" horiz-adv-x="512" d="M324 611l-51 -135h-34l-50 135v79h135v-79zM473 373h-42l-135 47v33l135 47h42v-127zM216 420l-135 -47h-42v127h42l135 -47v-33zM311 11l-40 -125h-31l-40 125v268l39 119h34l38 -119v-268z"/>
    <glyph glyph-name="daggerdbl" unicode="‡" horiz-adv-x="531" d="M333 611l-51 -135h-34l-50 135v79h135v-79zM482 377h-42l-135 43v33l135 44h42v-120zM225 420l-135 -43h-42v120h42l135 -44v-33zM327 230l-45 -119h-34l-45 119v49l45 119h34l45 -119v-49zM482 12h-42l-135 43v33l135 44h42v-120zM225 55l-135 -43h-42v120h42l135 -44 v-33zM333 -182h-135v79l50 136h34l51 -136v-79z"/>
    <glyph glyph-name="periodcentered" unicode="·" horiz-adv-x="258" d="M211 204h-162v173h162v-173z"/>
    <glyph glyph-name="paragraph" unicode="¶" horiz-adv-x="550" d="M481 0h-91v607h-65v-164l-36 -220c-155 5 -254 80 -254 228c0 142 98 225 257 225h189v-676z"/>
    <glyph glyph-name="bullet" unicode="•" horiz-adv-x="482" d="M412 344l-24 -156l-147 -23l-146 23l-25 156l25 157l146 23l147 -23z"/>
    <glyph glyph-name="quotesinglbase" unicode="‚" horiz-adv-x="258" d="M229 172l-100 -315l-92 21l22 294h170z"/>
    <glyph glyph-name="quotedblbase" unicode="„" horiz-adv-x="481" d="M227 172l-101 -315l-89 21l22 294h168zM452 172l-100 -315l-89 21l21 294h168z"/>
    <glyph glyph-name="quotedblright" unicode="”" horiz-adv-x="481" d="M232 690l-100 -315l-89 21l21 294h168zM458 690l-101 -315l-89 21l22 294h168z"/>
    <glyph glyph-name="guillemotright" unicode="»" horiz-adv-x="571" d="M549 244l-166 -244h-109l109 244l-103 233l99 21zM311 244l-166 -244h-109l108 244l-102 233l98 21z"/>
    <glyph glyph-name="ellipsis" unicode="…" horiz-adv-x="778" d="M727 0h-159v171h159v-171zM469 0h-159v171h159v-171zM211 0h-160v171h160v-171z"/>
    <glyph glyph-name="perthousand" unicode="‰" horiz-adv-x="799" d="M745 346c0 -213 -142 -359 -346 -359c-205 0 -345 144 -345 357c0 214 142 359 346 359c205 0 345 -144 345 -357zM701 345c0 207 -132 322 -301 322c-172 0 -302 -115 -302 -322s132 -322 302 -322c171 0 301 115 301 322zM491 310l98 -140l-113 -20l-89 133h-23v-128 h-108v394h140c103 0 162 -47 162 -129c0 -51 -25 -88 -67 -110zM390 470h-27v-113h27c43 0 64 20 64 57c0 36 -22 56 -64 56z"/>
    <glyph glyph-name="questiondown" unicode="¿" horiz-adv-x="506" d="M213 690h162v-172h-162v172zM236 405l3 33l99 23l11 -152l-31 -10c-97 -31 -133 -59 -133 -107c0 -41 30 -66 85 -66c63 0 131 30 189 71l21 -140c-59 -40 -133 -70 -232 -70c-141 0 -223 71 -223 192c0 116 73 182 211 226z"/>
    <glyph glyph-name="grave" unicode="`" d="M341 547h-99l-146 121l185 30z"/>
    <glyph glyph-name="acute" unicode="´" d="M357 668l-147 -121h-96l60 151z"/>
    <glyph glyph-name="circumflex" unicode="ˆ" d="M394 560l-89 -17l-77 62l-74 -58h-96l102 147h138z"/>
    <glyph glyph-name="tilde" unicode="˜" d="M394 686c-13 -103 -45 -139 -95 -139c-26 0 -43 8 -71 20c-38 16 -50 21 -65 21s-24 -9 -32 -44l-71 15c13 104 45 140 95 140c26 0 43 -7 71 -20c38 -17 50 -21 65 -21s24 10 32 45z"/>
    <glyph glyph-name="macron" unicode="¯" d="M376 559h-298v104h298v-104z"/>
    <glyph glyph-name="breve" unicode="˘" d="M383 696c-10 -95 -63 -150 -157 -150c-90 0 -143 54 -154 142l84 13c13 -44 34 -59 72 -59c35 0 58 16 68 54h87z"/>
    <glyph glyph-name="dotaccent" unicode="˙" d="M294 548h-134v131h134v-131z"/>
    <glyph glyph-name="dieresis" unicode="¨" d="M391 548h-130v131h130v-131zM193 548h-130v131h130v-131z"/>
    <glyph glyph-name="ring" unicode="˚" d="M359 653c0 -60 -45 -108 -132 -108s-132 48 -132 108c0 59 45 108 132 108s132 -49 132 -108zM277 653c0 31 -20 57 -50 57s-50 -26 -50 -57c0 -32 20 -58 50 -58s50 26 50 58z"/>
    <glyph glyph-name="cedilla" unicode="¸" d="M342 -76l-139 -106h-97l54 136z"/>
    <glyph glyph-name="hungarumlaut" unicode="˝" d="M443 670l-145 -122h-80l61 150zM242 670l-144 -122h-81l60 150z"/>
    <glyph glyph-name="ogonek" unicode="˛" d="M350 -182h-99l-141 106l185 30z"/>
    <glyph glyph-name="caron" unicode="ˇ" d="M396 694l-102 -147h-138l-96 134l89 18l77 -63l74 58h96z"/>
    <glyph glyph-name="emdash" unicode="—" horiz-adv-x="908" d="M867 221h-826v139h826v-139z"/>
    <glyph glyph-name="AE" unicode="Æ" horiz-adv-x="906" d="M873 0h-432v143h-196l-68 -143h-175l335 690h527v-137h-262v-126h200l22 -141h-222v-149h271v-137zM441 277v299l-138 -299h138z"/>
    <glyph glyph-name="ordfeminine" unicode="ª" horiz-adv-x="401" d="M342 354h-91l-7 40c-31 -28 -64 -46 -107 -46c-54 0 -90 34 -90 87c0 76 60 111 192 121v6c0 32 -19 43 -55 43c-37 0 -71 -9 -106 -24l-11 74c37 15 83 26 139 26c90 0 136 -33 136 -111v-216zM351 222h-300v73h288zM239 446v61c-69 -9 -92 -32 -92 -56 c0 -20 11 -32 30 -32c22 0 43 10 62 27z"/>
    <glyph glyph-name="Lslash" unicode="Ł" horiz-adv-x="519" d="M503 0h-404v274l-66 -18l-23 138l89 25v271h170v-222l138 39v-145l-138 -38v-176h211z"/>
    <glyph glyph-name="Oslash" unicode="Ø" horiz-adv-x="735" d="M710 676l-82 -101c45 -60 69 -139 69 -231c0 -213 -131 -357 -328 -357c-75 0 -141 21 -193 60l-47 -56l-103 23l81 100c-45 61 -69 140 -69 232c0 213 132 357 328 357c76 0 141 -21 194 -60l46 56zM468 532c-26 28 -60 43 -101 43c-101 0 -160 -92 -160 -230 c0 -42 6 -78 18 -109zM528 345c0 42 -6 79 -17 109l-244 -296c26 -28 60 -43 100 -43c101 0 161 92 161 230z"/>
    <glyph glyph-name="OE" unicode="Œ" horiz-adv-x="908" d="M875 0h-471c-240 0 -365 140 -365 344c0 205 128 346 361 346h466v-137h-262v-126h200l22 -141h-222v-149h271v-137zM438 133v424h-29c-122 0 -199 -64 -199 -212c0 -145 81 -212 199 -212h29z"/>
    <glyph glyph-name="ordmasculine" unicode="º" horiz-adv-x="402" d="M364 514c0 -103 -69 -166 -164 -166c-93 0 -162 63 -162 166s69 167 162 167c95 0 164 -64 164 -167zM357 222h-309v73h297zM261 514c0 51 -22 85 -61 85c-38 0 -59 -35 -59 -85c0 -51 21 -85 59 -85c39 0 61 34 61 85z"/>
    <glyph glyph-name="ae" unicode="æ" horiz-adv-x="781" d="M751 246c0 -15 -1 -31 -2 -39h-295c8 -77 55 -107 120 -107c54 0 108 20 161 51l16 -106c-53 -34 -118 -55 -195 -55c-81 0 -149 24 -194 73c-55 -46 -112 -73 -180 -73c-89 0 -154 44 -154 135c0 113 86 169 277 187v9c0 43 -21 62 -71 62c-55 0 -106 -14 -158 -37 l-18 114c56 23 120 38 191 38c79 0 122 -19 151 -65c35 42 80 67 142 67c143 0 209 -112 209 -254zM607 290c-4 74 -31 112 -77 112c-41 0 -72 -37 -76 -112h153zM319 138c-9 30 -15 62 -15 99v1c-100 -16 -127 -51 -127 -90c0 -34 20 -50 52 -50c31 0 60 13 90 40z"/>
    <glyph glyph-name="dotlessi" unicode="ı" horiz-adv-x="262" d="M208 0h-151v490h151v-490z"/>
    <glyph glyph-name="lslash" unicode="ł" horiz-adv-x="333" d="M320 346l-79 -22v-324h-149v281l-67 -19l-23 139l90 25v272l149 24v-252l79 20v-144z"/>
    <glyph glyph-name="oslash" unicode="ø" horiz-adv-x="527" d="M509 479l-59 -71c32 -41 49 -97 49 -163c0 -157 -102 -255 -234 -255c-51 0 -98 14 -136 41l-30 -39l-81 18l59 71c-30 42 -48 97 -48 163c0 157 101 256 233 256c51 0 98 -15 136 -41l30 39zM319 361c-14 14 -33 23 -56 23c-60 0 -92 -57 -92 -139c0 -22 2 -44 7 -62z M349 307l-142 -178c15 -15 33 -23 56 -23c61 0 95 56 95 138c0 23 -3 45 -9 63z"/>
    <glyph glyph-name="oe" unicode="œ" horiz-adv-x="830" d="M800 246c0 -15 -1 -31 -2 -39h-295c8 -77 56 -107 121 -107c54 0 107 20 161 51l15 -106c-53 -34 -111 -55 -191 -55c-84 0 -146 29 -184 83c-38 -51 -94 -83 -169 -83c-128 0 -228 97 -228 254s100 256 233 256c73 0 130 -30 165 -84c38 52 93 84 164 84 c144 0 210 -112 210 -254zM656 290c-5 74 -30 112 -76 112c-42 0 -73 -37 -77 -112h153zM353 244c0 79 -32 132 -90 132s-89 -51 -89 -131c0 -79 32 -133 89 -133c58 0 90 53 90 132z"/>
    <glyph glyph-name="germandbls" unicode="ß" horiz-adv-x="613" d="M591 156c0 -108 -69 -163 -177 -163c-50 0 -98 12 -139 32l19 114c35 -21 71 -33 103 -33c30 0 50 15 50 45c0 34 -30 70 -144 105l-15 99c35 54 61 111 61 169c0 48 -20 75 -58 75c-39 0 -59 -30 -59 -81v-518h-151v367h-68v123h68v17c0 133 76 206 212 206 s202 -74 202 -176c0 -81 -36 -134 -83 -187c117 -41 179 -94 179 -194z"/>
    <glyph glyph-name="NUL" horiz-adv-x="0"/>
    <glyph glyph-name="Eth" unicode="Ð" horiz-adv-x="740" d="M702 346c0 -205 -129 -346 -362 -346h-241v281h-66l-23 144h89v265h237c240 0 366 -139 366 -344zM529 345c0 145 -80 212 -198 212h-66v-134h126v-141h-126v-149h66c123 0 198 64 198 212z"/>
    <glyph glyph-name="eth" unicode="ð" horiz-adv-x="539" d="M508 312c0 -115 -32 -202 -88 -259c-43 -44 -95 -64 -164 -64c-127 0 -227 85 -227 236c0 142 81 234 186 234c56 0 103 -20 143 -58c-7 61 -36 104 -83 139l-28 -37h-87l51 72c-25 11 -53 20 -82 29l18 117c51 -10 98 -26 139 -44l31 45l86 -18l-49 -65 c99 -69 154 -174 154 -327zM362 300c-31 26 -70 42 -104 42c-50 0 -84 -43 -84 -121c0 -71 36 -114 91 -114c60 0 96 63 98 184c0 3 0 7 -1 9z"/>
    <glyph glyph-name="Scaron" unicode="Š" horiz-adv-x="553" d="M523 208c0 -150 -110 -216 -247 -216c-93 0 -171 20 -241 52l25 146c71 -38 150 -64 219 -64c49 0 83 21 83 62c0 39 -20 57 -117 94c-138 53 -198 98 -198 212c0 133 104 204 236 204c90 0 148 -17 208 -46l-26 -144c-62 36 -127 56 -180 56c-52 0 -77 -22 -77 -54 c0 -35 19 -52 105 -85c150 -55 210 -107 210 -217zM453 897l-102 -147h-138l-96 134l89 18l77 -63l74 58h96z"/>
    <glyph glyph-name="scaron" unicode="š" horiz-adv-x="464" d="M435 151c0 -103 -71 -159 -201 -159c-78 0 -151 22 -202 49l18 115c58 -36 129 -58 185 -58c42 0 62 14 62 37c0 25 -14 36 -83 53c-123 32 -175 65 -175 157c0 91 68 152 188 152c66 0 130 -13 181 -36l-19 -115c-53 29 -114 46 -161 46c-36 0 -52 -13 -52 -32 c0 -20 14 -31 83 -50c130 -35 176 -68 176 -159zM403 694l-102 -147h-138l-96 134l89 18l77 -63l74 58h96z"/>
    <glyph glyph-name="Yacute" unicode="Ý" horiz-adv-x="672" d="M666 690l-248 -436v-254h-172v252l-238 420l182 25l150 -287l147 280h179zM528 841l-147 -121h-96l60 151z"/>
    <glyph glyph-name="yacute" unicode="ý" horiz-adv-x="510" d="M502 490l-174 -500c-44 -128 -104 -172 -211 -172c-30 0 -43 3 -57 6l-19 121c16 -5 31 -8 60 -8c34 0 64 13 80 47l6 15l-178 479l162 19l95 -309l90 302h146zM455 659l-147 -121h-96l60 151z"/>
    <glyph glyph-name="Thorn" unicode="Þ" horiz-adv-x="582" d="M555 359c0 -156 -111 -236 -278 -236h-43v-123h-171v690h171v-106h50c169 0 271 -75 271 -225zM390 356c0 66 -39 99 -115 99h-43v-203h40c76 0 118 33 118 104z"/>
    <glyph glyph-name="thorn" unicode="þ" horiz-adv-x="544" d="M512 258c0 -186 -98 -263 -206 -263c-44 0 -75 8 -103 17v-175l-151 -23v884l151 24v-289c31 34 74 67 133 67c101 0 176 -76 176 -242zM361 248c0 82 -31 117 -74 117c-33 0 -59 -20 -84 -50v-186c21 -10 39 -15 68 -15c52 0 90 39 90 134z"/>
    <glyph glyph-name="Zcaron" unicode="Ž" horiz-adv-x="613" d="M580 0h-540v124l322 430h-287l-21 136h517v-124l-322 -430h309zM485 888l-102 -147h-138l-96 134l89 18l77 -63l74 58h96z"/>
    <glyph glyph-name="zcaron" unicode="ž" horiz-adv-x="467" d="M442 0h-413v114l214 258h-187l-18 118h392v-115l-214 -257h207zM405 694l-102 -147h-138l-96 134l89 18l77 -63l74 58h96z"/>
    <glyph glyph-name="onehalf" unicode="½" horiz-adv-x="500" d="M25 -200v1000h450v-1000h-450z"/>
    <glyph glyph-name="onequarter" unicode="¼" horiz-adv-x="500" d="M25 -200v1000h450v-1000h-450z"/>
    <glyph glyph-name="onesuperior" unicode="¹" horiz-adv-x="500" d="M25 -200v1000h450v-1000h-450z"/>
    <glyph glyph-name="threequarters" unicode="¾" horiz-adv-x="500" d="M25 -200v1000h450v-1000h-450z"/>
    <glyph glyph-name="threesuperior" unicode="³" horiz-adv-x="500" d="M25 -200v1000h450v-1000h-450z"/>
    <glyph glyph-name="twosuperior" unicode="²" horiz-adv-x="500" d="M25 -200v1000h450v-1000h-450z"/>
    <glyph glyph-name="brokenbar" unicode="¦" horiz-adv-x="500" d="M25 -200v1000h450v-1000h-450z"/>
    <glyph glyph-name="minus" unicode="−" horiz-adv-x="500" d="M25 -200v1000h450v-1000h-450z"/>
    <glyph glyph-name="multiply" unicode="×" horiz-adv-x="500" d="M25 -200v1000h450v-1000h-450z"/>
    <glyph glyph-name="Adieresis" unicode="Ä" horiz-adv-x="702" d="M689 21l-172 -28l-52 150h-237l-48 -143h-167l248 693h188zM424 277l-78 240l-78 -240h156zM515 741h-130v131h130v-131zM317 741h-130v131h130v-131z"/>
    <glyph glyph-name="Aring" unicode="Å" horiz-adv-x="702" d="M689 21l-172 -28l-52 150h-237l-48 -143h-167l248 693h188zM424 277l-78 240l-78 -240h156zM483 846c0 -60 -45 -108 -132 -108s-132 48 -132 108c0 59 45 108 132 108s132 -49 132 -108zM401 846c0 31 -20 57 -50 57s-50 -26 -50 -57c0 -32 20 -58 50 -58s50 26 50 58z "/>
    <glyph glyph-name="Ccedilla" unicode="Ç" horiz-adv-x="605" d="M569 39c-56 -31 -120 -51 -196 -51c-209 0 -335 140 -335 356c0 214 134 358 330 358c78 0 141 -17 191 -45l-24 -154c-42 32 -94 56 -154 56c-104 0 -172 -79 -172 -214c0 -138 77 -214 181 -214c56 0 105 19 157 48zM443 -79l-139 -106h-97l54 136z"/>
    <glyph glyph-name="Eacute" unicode="É" horiz-adv-x="535" d="M502 0h-439v690h430v-137h-262v-126h200l22 -141h-222v-149h271v-137zM439 862l-147 -121h-96l60 151z"/>
    <glyph glyph-name="Ntilde" unicode="Ñ" horiz-adv-x="705" d="M642 0h-148l-272 413v-413h-159v690h166l254 -386v386h159v-690zM521 868c-13 -103 -45 -139 -95 -139c-26 0 -43 8 -71 20c-38 16 -50 21 -65 21s-24 -9 -32 -44l-71 15c13 104 45 140 95 140c26 0 43 -7 71 -20c38 -17 50 -21 65 -21s24 10 32 45z"/>
    <glyph glyph-name="Odieresis" unicode="Ö" horiz-adv-x="735" d="M697 346c0 -213 -130 -359 -331 -359c-198 0 -328 144 -328 357c0 214 130 359 330 359s329 -144 329 -357zM525 345c0 137 -58 224 -158 224s-158 -87 -158 -224s59 -224 158 -224c100 0 158 87 158 224zM531 751h-130v131h130v-131zM333 751h-130v131h130v-131z"/>
    <glyph glyph-name="Udieresis" unicode="Ü" horiz-adv-x="688" d="M633 274c0 -192 -124 -285 -291 -285c-169 0 -287 91 -287 284v417h172v-416c0 -89 40 -141 117 -141c78 0 117 51 117 139v418h172v-416zM508 730h-130v131h130v-131zM310 730h-130v131h130v-131z"/>
    <glyph glyph-name="aacute" unicode="á" horiz-adv-x="507" d="M459 0h-134l-10 61c-40 -42 -87 -71 -154 -71c-78 0 -133 47 -133 136c0 115 88 169 280 186v9c0 43 -24 62 -74 62c-55 0 -106 -14 -158 -37l-18 114c56 23 119 38 199 38c135 0 202 -45 202 -170v-328zM308 135v104c-103 -16 -131 -50 -131 -93c0 -31 19 -48 47 -48 c29 0 57 13 84 37zM429 668l-147 -121h-96l60 151z"/>
    <glyph glyph-name="agrave" unicode="à" horiz-adv-x="507" d="M459 0h-134l-10 61c-40 -42 -87 -71 -154 -71c-78 0 -133 47 -133 136c0 115 88 169 280 186v9c0 43 -24 62 -74 62c-55 0 -106 -14 -158 -37l-18 114c56 23 119 38 199 38c135 0 202 -45 202 -170v-328zM308 135v104c-103 -16 -131 -50 -131 -93c0 -31 19 -48 47 -48 c29 0 57 13 84 37zM319 547h-99l-146 121l185 30z"/>
    <glyph glyph-name="acircumflex" unicode="â" horiz-adv-x="507" d="M459 0h-134l-10 61c-40 -42 -87 -71 -154 -71c-78 0 -133 47 -133 136c0 115 88 169 280 186v9c0 43 -24 62 -74 62c-55 0 -106 -14 -158 -37l-18 114c56 23 119 38 199 38c135 0 202 -45 202 -170v-328zM308 135v104c-103 -16 -131 -50 -131 -93c0 -31 19 -48 47 -48 c29 0 57 13 84 37zM421 560l-89 -17l-77 62l-74 -58h-96l102 147h138z"/>
    <glyph glyph-name="adieresis" unicode="ä" horiz-adv-x="507" d="M459 0h-134l-10 61c-40 -42 -87 -71 -154 -71c-78 0 -133 47 -133 136c0 115 88 169 280 186v9c0 43 -24 62 -74 62c-55 0 -106 -14 -158 -37l-18 114c56 23 119 38 199 38c135 0 202 -45 202 -170v-328zM308 135v104c-103 -16 -131 -50 -131 -93c0 -31 19 -48 47 -48 c29 0 57 13 84 37zM420 548h-130v131h130v-131zM222 548h-130v131h130v-131z"/>
    <glyph glyph-name="atilde" unicode="ã" horiz-adv-x="507" d="M459 0h-134l-10 61c-40 -42 -87 -71 -154 -71c-78 0 -133 47 -133 136c0 115 88 169 280 186v9c0 43 -24 62 -74 62c-55 0 -106 -14 -158 -37l-18 114c56 23 119 38 199 38c135 0 202 -45 202 -170v-328zM308 135v104c-103 -16 -131 -50 -131 -93c0 -31 19 -48 47 -48 c29 0 57 13 84 37zM424 686c-13 -103 -45 -139 -95 -139c-26 0 -43 8 -71 20c-38 16 -50 21 -65 21s-24 -9 -32 -44l-71 15c13 104 45 140 95 140c26 0 43 -7 71 -20c38 -17 50 -21 65 -21s24 10 32 45z"/>
    <glyph glyph-name="aring" unicode="å" horiz-adv-x="507" d="M459 0h-134l-10 61c-40 -42 -87 -71 -154 -71c-78 0 -133 47 -133 136c0 115 88 169 280 186v9c0 43 -24 62 -74 62c-55 0 -106 -14 -158 -37l-18 114c56 23 119 38 199 38c135 0 202 -45 202 -170v-328zM308 135v104c-103 -16 -131 -50 -131 -93c0 -31 19 -48 47 -48 c29 0 57 13 84 37zM386 653c0 -60 -45 -108 -132 -108s-132 48 -132 108c0 59 45 108 132 108s132 -49 132 -108zM304 653c0 31 -20 57 -50 57s-50 -26 -50 -57c0 -32 20 -58 50 -58s50 26 50 58z"/>
    <glyph glyph-name="ccedilla" unicode="ç" horiz-adv-x="451" d="M421 35c-49 -30 -98 -44 -156 -44c-141 0 -237 92 -237 250c0 173 110 257 243 257c59 0 106 -14 146 -37l-20 -129c-39 25 -71 36 -111 36c-61 0 -105 -41 -105 -123c0 -84 49 -125 110 -125c36 0 70 11 112 38zM359 -79l-139 -106h-97l54 136z"/>
    <glyph glyph-name="eacute" unicode="é" horiz-adv-x="505" d="M476 246c0 -15 -1 -31 -3 -39h-294c8 -77 54 -107 120 -107c54 0 107 20 161 51l15 -106c-53 -34 -118 -55 -195 -55c-147 0 -252 78 -252 253c0 160 98 257 231 257c150 0 217 -112 217 -254zM332 290c-5 74 -31 112 -77 112c-42 0 -72 -37 -77 -112h154zM439 668 l-147 -121h-96l60 151z"/>
    <glyph glyph-name="egrave" unicode="è" horiz-adv-x="505" d="M476 246c0 -15 -1 -31 -3 -39h-294c8 -77 54 -107 120 -107c54 0 107 20 161 51l15 -106c-53 -34 -118 -55 -195 -55c-147 0 -252 78 -252 253c0 160 98 257 231 257c150 0 217 -112 217 -254zM332 290c-5 74 -31 112 -77 112c-42 0 -72 -37 -77 -112h154zM310 547h-99 l-146 121l185 30z"/>
    <glyph glyph-name="ecircumflex" unicode="ê" horiz-adv-x="505" d="M476 246c0 -15 -1 -31 -3 -39h-294c8 -77 54 -107 120 -107c54 0 107 20 161 51l15 -106c-53 -34 -118 -55 -195 -55c-147 0 -252 78 -252 253c0 160 98 257 231 257c150 0 217 -112 217 -254zM332 290c-5 74 -31 112 -77 112c-42 0 -72 -37 -77 -112h154zM425 560 l-89 -17l-77 62l-74 -58h-96l102 147h138z"/>
    <glyph glyph-name="edieresis" unicode="ë" horiz-adv-x="505" d="M476 246c0 -15 -1 -31 -3 -39h-294c8 -77 54 -107 120 -107c54 0 107 20 161 51l15 -106c-53 -34 -118 -55 -195 -55c-147 0 -252 78 -252 253c0 160 98 257 231 257c150 0 217 -112 217 -254zM332 290c-5 74 -31 112 -77 112c-42 0 -72 -37 -77 -112h154zM422 548h-130 v131h130v-131zM224 548h-130v131h130v-131z"/>
    <glyph glyph-name="iacute" unicode="í" horiz-adv-x="262" d="M294 668l-131 -121h-85l53 151zM208 0h-151v490h151v-490z"/>
    <glyph glyph-name="igrave" unicode="ì" horiz-adv-x="262" d="M187 547h-88l-130 121l165 30zM208 0h-151v490h151v-490z"/>
    <glyph glyph-name="icircumflex" unicode="î" horiz-adv-x="262" d="M282 560l-80 -17l-69 62l-66 -58h-87l91 147h125zM208 0h-151v490h151v-490z"/>
    <glyph glyph-name="idieresis" unicode="ï" horiz-adv-x="262" d="M271 548h-113v131h113v-131zM104 548h-113v131h113v-131zM208 0h-151v490h151v-490z"/>
    <glyph glyph-name="ntilde" unicode="ñ" horiz-adv-x="537" d="M488 0h-152v307c0 35 -14 59 -50 59c-29 0 -56 -17 -83 -44v-322h-151v490h133l11 -67c44 43 91 77 153 77c91 0 139 -57 139 -152v-348zM440 686c-13 -103 -45 -139 -95 -139c-26 0 -43 8 -71 20c-38 16 -50 21 -65 21s-24 -9 -32 -44l-71 15c13 104 45 140 95 140 c26 0 43 -7 71 -20c38 -17 50 -21 65 -21s24 10 32 45z"/>
    <glyph glyph-name="oacute" unicode="ó" horiz-adv-x="527" d="M456 668l-147 -121h-96l60 151zM499 245c0 -157 -101 -255 -237 -255c-135 0 -234 97 -234 254s100 256 235 256c136 0 236 -98 236 -255zM353 244c0 79 -32 132 -90 132s-89 -51 -89 -131c0 -79 32 -133 89 -133c58 0 90 53 90 132z"/>
    <glyph glyph-name="ograve" unicode="ò" horiz-adv-x="527" d="M499 245c0 -157 -101 -255 -237 -255c-135 0 -234 97 -234 254s100 256 235 256c136 0 236 -98 236 -255zM353 244c0 79 -32 132 -90 132s-89 -51 -89 -131c0 -79 32 -133 89 -133c58 0 90 53 90 132zM314 547h-99l-146 121l185 30z"/>
    <glyph glyph-name="ocircumflex" unicode="ô" horiz-adv-x="527" d="M499 245c0 -157 -101 -255 -237 -255c-135 0 -234 97 -234 254s100 256 235 256c136 0 236 -98 236 -255zM353 244c0 79 -32 132 -90 132s-89 -51 -89 -131c0 -79 32 -133 89 -133c58 0 90 53 90 132zM430 560l-89 -17l-77 62l-74 -58h-96l102 147h138z"/>
    <glyph glyph-name="odieresis" unicode="ö" horiz-adv-x="527" d="M499 245c0 -157 -101 -255 -237 -255c-135 0 -234 97 -234 254s100 256 235 256c136 0 236 -98 236 -255zM353 244c0 79 -32 132 -90 132s-89 -51 -89 -131c0 -79 32 -133 89 -133c58 0 90 53 90 132zM427 548h-130v131h130v-131zM229 548h-130v131h130v-131z"/>
    <glyph glyph-name="otilde" unicode="õ" horiz-adv-x="527" d="M499 245c0 -157 -101 -255 -237 -255c-135 0 -234 97 -234 254s100 256 235 256c136 0 236 -98 236 -255zM353 244c0 79 -32 132 -90 132s-89 -51 -89 -131c0 -79 32 -133 89 -133c58 0 90 53 90 132zM431 686c-13 -103 -45 -139 -95 -139c-26 0 -43 8 -71 20 c-38 16 -50 21 -65 21s-24 -9 -32 -44l-71 15c13 104 45 140 95 140c26 0 43 -7 71 -20c38 -17 50 -21 65 -21s24 10 32 45z"/>
    <glyph glyph-name="uacute" unicode="ú" horiz-adv-x="537" d="M485 0h-133l-11 67c-45 -44 -92 -77 -153 -77c-91 0 -139 56 -139 151v349h151v-307c0 -35 15 -60 51 -60c29 0 56 17 83 44v323h151v-490zM445 668l-147 -121h-96l60 151z"/>
    <glyph glyph-name="ugrave" unicode="ù" horiz-adv-x="537" d="M485 0h-133l-11 67c-45 -44 -92 -77 -153 -77c-91 0 -139 56 -139 151v349h151v-307c0 -35 15 -60 51 -60c29 0 56 17 83 44v323h151v-490zM326 547h-99l-146 121l185 30z"/>
    <glyph glyph-name="ucircumflex" unicode="û" horiz-adv-x="537" d="M485 0h-133l-11 67c-45 -44 -92 -77 -153 -77c-91 0 -139 56 -139 151v349h151v-307c0 -35 15 -60 51 -60c29 0 56 17 83 44v323h151v-490zM435 560l-89 -17l-77 62l-74 -58h-96l102 147h138z"/>
    <glyph glyph-name="udieresis" unicode="ü" horiz-adv-x="537" d="M485 0h-133l-11 67c-45 -44 -92 -77 -153 -77c-91 0 -139 56 -139 151v349h151v-307c0 -35 15 -60 51 -60c29 0 56 17 83 44v323h151v-490zM433 548h-130v131h130v-131zM235 548h-130v131h130v-131z"/>
    <glyph glyph-name="degree" unicode="°" horiz-adv-x="446" d="M400 505c0 -103 -74 -176 -177 -176s-177 73 -177 176c0 102 74 177 177 177s177 -75 177 -177zM310 505c0 53 -35 94 -87 94s-87 -41 -87 -94c0 -54 35 -93 87 -93s87 39 87 93z"/>
    <glyph glyph-name="registered" unicode="®" horiz-adv-x="563" d="M508 470c0 -138 -95 -232 -227 -232c-134 0 -227 93 -227 232c0 138 95 233 227 233c134 0 227 -94 227 -233zM475 470c0 132 -86 206 -194 206s-194 -74 -194 -206c0 -131 86 -205 194 -205c109 0 194 74 194 205zM404 359l-75 -12l-58 92h-14v-89h-70v256h99 c63 0 100 -28 100 -80c0 -34 -16 -58 -46 -71zM317 521c0 22 -14 35 -39 35h-21v-71h20c26 0 40 12 40 36z"/>
    <glyph glyph-name="copyright" unicode="©" horiz-adv-x="799" d="M745 346c0 -213 -142 -359 -346 -359c-205 0 -345 144 -345 357c0 214 142 359 346 359c205 0 345 -144 345 -357zM701 345c0 207 -132 322 -301 322c-172 0 -302 -115 -302 -322s132 -322 302 -322c171 0 301 115 301 322zM545 177c-39 -22 -78 -32 -125 -32 c-127 0 -204 82 -204 203s83 203 202 203c47 0 86 -10 120 -26l-15 -98c-35 23 -62 32 -98 32c-59 0 -93 -46 -93 -110c0 -68 38 -112 100 -112c30 0 61 8 99 30z"/>
    <glyph glyph-name="trademark" unicode="™" horiz-adv-x="812" d="M776 345h-95l-15 215l-64 -217h-86l-64 217l-15 -215h-82l26 345h120l67 -225l67 225h115zM332 615h-110v-270h-93v270h-102v75h294z"/>
    <glyph glyph-name="notequal" unicode="≠" horiz-adv-x="545" d="M508 206c0 -132 -96 -219 -252 -219c-89 0 -166 22 -225 52l21 132c56 -31 123 -51 183 -51c73 0 112 31 112 88c0 58 -49 85 -145 85h-54l-16 99l165 153h-235l-22 131h452v-121l-174 -157c112 -19 190 -70 190 -192z"/>
    <glyph glyph-name="infinity" unicode="∞" horiz-adv-x="507" d="M459 0h-134l-10 61c-40 -42 -87 -71 -154 -71c-78 0 -133 47 -133 136c0 115 88 169 280 186v9c0 43 -24 62 -74 62c-55 0 -106 -14 -158 -37l-18 114c56 23 119 38 199 38c135 0 202 -45 202 -170v-328zM308 135v104c-103 -16 -131 -50 -131 -93c0 -31 19 -48 47 -48 c29 0 57 13 84 37z"/>
    <glyph glyph-name="plusminus" unicode="±" horiz-adv-x="610" d="M591 135h-95v-135h-154v135h-316v112l285 434l145 -34l-269 -397h157v146l152 33v-179h95v-115z"/>
    <glyph glyph-name="lessequal" unicode="≤" horiz-adv-x="884" d="M822 0h-163v454l-151 -457h-149l-151 457v-454h-145v690h229l154 -472l153 472h223v-690z"/>
    <glyph glyph-name="greaterequal" unicode="≥" horiz-adv-x="698" d="M480 66c-63 -44 -126 -73 -204 -73c-130 0 -216 63 -216 223v474h172v-450c0 -68 30 -101 94 -101c43 0 89 20 138 57v494h171v-690h-144s-10 66 -11 66z"/>
    <glyph glyph-name="mu" unicode="µ" horiz-adv-x="572" d="M425 113l-140 142l-139 -141l-84 84l141 139l-142 140l86 86l140 -142l139 141l84 -84l-141 -139l142 -140z"/>
    <glyph glyph-name="partialdiff" unicode="∂" horiz-adv-x="747" d="M722 141l-29 -155l-108 86c-56 -52 -131 -82 -219 -82c-199 0 -329 141 -329 354c0 214 131 359 331 359c207 0 329 -147 329 -351c0 -63 -12 -119 -35 -168zM528 348c0 134 -58 221 -159 221c-102 0 -160 -87 -160 -225s59 -225 160 -225c42 0 76 15 102 42l-152 115 l168 37l31 -23c6 16 10 35 10 58z"/>
    <glyph glyph-name="summation" unicode="∑" horiz-adv-x="1011" d="M998 690l-224 -693h-172l-97 290l-106 -290h-168l-217 672l180 28l145 -478l99 270l-59 182l180 27l136 -479l133 471h170z"/>
    <glyph glyph-name="product" unicode="∏" horiz-adv-x="500" d="M25 -200v1000h450v-1000h-450z"/>
    <glyph glyph-name="pi" unicode="π" horiz-adv-x="799" d="M745 346c0 -213 -142 -359 -346 -359c-205 0 -345 144 -345 357c0 214 142 359 346 359c205 0 345 -144 345 -357zM701 345c0 207 -132 322 -301 322c-172 0 -302 -115 -302 -322s132 -322 302 -322c171 0 301 115 301 322zM573 412c0 -90 -64 -138 -162 -138h-32v-124 h-110v394h148c95 0 156 -48 156 -132zM468 410c0 36 -23 55 -62 55h-28v-113h27c39 0 63 20 63 58z"/>
    <glyph glyph-name="integral" unicode="∫" horiz-adv-x="541" d="M489 30c0 -139 -80 -212 -237 -212c-78 0 -137 15 -190 36l22 114c45 -23 98 -38 149 -38c66 0 105 29 105 95v42c-32 -31 -73 -62 -131 -62c-101 0 -177 75 -177 234c0 176 98 257 248 257c79 0 153 -14 211 -35v-431zM338 180v185c-20 7 -33 9 -56 9 c-59 0 -100 -35 -100 -128c0 -78 30 -113 73 -113c31 0 57 20 83 47z"/>
    <glyph glyph-name="Omega" unicode="Ω" horiz-adv-x="682" d="M687 592c-14 2 -33 4 -54 4c-41 0 -60 -20 -60 -60v-46h88l20 -123h-108v-367h-150v367h-69v123h69v61c0 118 71 162 185 162c24 0 44 -3 61 -5zM346 592c-15 2 -33 4 -54 4c-41 0 -60 -20 -60 -60v-46h89l18 -123h-107v-367h-151v367h-68v123h68v61 c0 118 73 162 186 162c24 0 44 -3 61 -5z"/>
    <glyph glyph-name="logicalnot" unicode="¬" horiz-adv-x="572" d="M518 275h-464v126h464v-126z"/>
    <glyph glyph-name="radical" unicode="√" horiz-adv-x="944" d="M889 0h-151v698l151 24v-722zM687 592c-14 2 -33 4 -54 4c-41 0 -60 -20 -60 -60v-46h88l20 -123h-108v-367h-150v367h-69v123h69v61c0 118 71 162 185 162c24 0 44 -3 61 -5zM346 592c-15 2 -33 4 -54 4c-41 0 -60 -20 -60 -60v-46h89l18 -123h-107v-367h-151v367h-68 v123h68v61c0 118 73 162 186 162c24 0 44 -3 61 -5z"/>
    <glyph glyph-name="approxequal" unicode="≈" horiz-adv-x="944" d="M899 636c0 -49 -38 -81 -85 -81c-49 0 -86 32 -86 81s37 81 86 81c47 0 85 -32 85 -81zM687 592c-14 2 -33 4 -54 4c-41 0 -60 -20 -60 -60v-46h88l20 -123h-108v-367h-150v367h-69v123h69v61c0 118 71 162 185 162c24 0 44 -3 61 -5zM346 592c-15 2 -33 4 -54 4 c-41 0 -60 -20 -60 -60v-46h89l18 -123h-107v-367h-151v367h-68v123h68v61c0 118 73 162 186 162c24 0 44 -3 61 -5zM889 0h-151v490h151v-490z"/>
    <glyph glyph-name="Delta" unicode="Δ" horiz-adv-x="500" d="M25 -200v1000h450v-1000h-450z"/>
    <glyph glyph-name="nbspace" unicode=" " horiz-adv-x="104"/>
    <glyph glyph-name="Agrave" unicode="À" horiz-adv-x="702" d="M689 21l-172 -28l-52 150h-237l-48 -143h-167l248 693h188zM424 277l-78 240l-78 -240h156zM404 740h-99l-146 121l185 30z"/>
    <glyph glyph-name="Atilde" unicode="Ã" horiz-adv-x="702" d="M689 21l-172 -28l-52 150h-237l-48 -143h-167l248 693h188zM424 277l-78 240l-78 -240h156zM518 879c-13 -103 -45 -139 -95 -139c-26 0 -43 8 -71 20c-38 16 -50 21 -65 21s-24 -9 -32 -44l-71 15c13 104 45 140 95 140c26 0 43 -7 71 -20c38 -17 50 -21 65 -21 s24 10 32 45z"/>
    <glyph glyph-name="Otilde" unicode="Õ" horiz-adv-x="735" d="M697 346c0 -213 -130 -359 -331 -359c-198 0 -328 144 -328 357c0 214 130 359 330 359s329 -144 329 -357zM525 345c0 137 -58 224 -158 224s-158 -87 -158 -224s59 -224 158 -224c100 0 158 87 158 224zM534 890c-13 -103 -45 -139 -95 -139c-26 0 -43 8 -71 20 c-38 16 -50 21 -65 21s-24 -9 -32 -44l-71 15c13 104 45 140 95 140c26 0 43 -7 71 -20c38 -17 50 -21 65 -21s24 10 32 45z"/>
    <glyph glyph-name="divide" unicode="÷" horiz-adv-x="572" d="M353 472h-134v130h134v-130zM518 280h-464v116h464v-116zM353 74h-134v130h134v-130z"/>
    <glyph glyph-name="lozenge" unicode="◊" horiz-adv-x="812" d="M776 345h-95l-15 215l-64 -217h-86l-64 217l-15 -215h-82l26 345h120l67 -225l67 225h115zM182 340c-42 0 -79 10 -115 28l13 78c37 -21 73 -34 105 -34c21 0 35 10 35 27c0 18 -11 28 -49 43c-69 29 -98 52 -98 110c0 65 52 103 117 103c42 0 72 -9 99 -24l-11 -78 c-34 20 -64 30 -89 30c-22 0 -33 -11 -33 -24c0 -16 9 -25 44 -40c74 -30 105 -54 105 -113c0 -73 -54 -106 -123 -106z"/>
    <glyph glyph-name="ydieresis" unicode="ÿ" horiz-adv-x="510" d="M502 490l-174 -500c-44 -128 -104 -172 -211 -172c-30 0 -43 3 -57 6l-19 121c16 -5 31 -8 60 -8c34 0 64 13 80 47l6 15l-178 479l162 19l95 -309l90 302h146zM428 548h-130v131h130v-131zM230 548h-130v131h130v-131z"/>
    <glyph glyph-name="Ydieresis" unicode="Ÿ" horiz-adv-x="672" d="M666 690l-248 -436v-254h-172v252l-238 420l182 25l150 -287l147 280h179zM504 730h-130v131h130v-131zM306 730h-130v131h130v-131z"/>
    <glyph glyph-name="Acircumflex" unicode="Â" horiz-adv-x="702" d="M689 21l-172 -28l-52 150h-237l-48 -143h-167l248 693h188zM424 277l-78 240l-78 -240h156zM518 744l-89 -17l-77 62l-74 -58h-96l102 147h138z"/>
    <glyph glyph-name="Ecircumflex" unicode="Ê" horiz-adv-x="535" d="M502 0h-439v690h430v-137h-262v-126h200l22 -141h-222v-149h271v-137zM442 754l-89 -17l-77 62l-74 -58h-96l102 147h138z"/>
    <glyph glyph-name="Aacute" unicode="Á" horiz-adv-x="702" d="M546 861l-147 -121h-96l60 151zM689 21l-172 -28l-52 150h-237l-48 -143h-167l248 693h188zM424 277l-78 240l-78 -240h156z"/>
    <glyph glyph-name="Edieresis" unicode="Ë" horiz-adv-x="535" d="M502 0h-439v690h430v-137h-262v-126h200l22 -141h-222v-149h271v-137zM439 742h-130v131h130v-131zM241 742h-130v131h130v-131z"/>
    <glyph glyph-name="Egrave" unicode="È" horiz-adv-x="535" d="M502 0h-439v690h430v-137h-262v-126h200l22 -141h-222v-149h271v-137zM353 741h-99l-146 121l185 30z"/>
    <glyph glyph-name="Iacute" unicode="Í" horiz-adv-x="305" d="M342 862l-147 -121h-96l60 151zM238 0h-171v690h171v-690z"/>
    <glyph glyph-name="Icircumflex" unicode="Î" horiz-adv-x="305" d="M238 0h-171v690h171v-690zM320 745l-89 -17l-77 62l-74 -58h-96l102 147h138z"/>
    <glyph glyph-name="Idieresis" unicode="Ï" horiz-adv-x="305" d="M238 0h-171v690h171v-690zM317 742h-130v131h130v-131zM119 742h-130v131h130v-131z"/>
    <glyph glyph-name="Igrave" unicode="Ì" horiz-adv-x="305" d="M238 0h-171v690h171v-690zM208 741h-99l-146 121l185 30z"/>
    <glyph glyph-name="Oacute" unicode="Ó" horiz-adv-x="735" d="M552 871l-147 -121h-96l60 151zM697 346c0 -213 -130 -359 -331 -359c-198 0 -328 144 -328 357c0 214 130 359 330 359s329 -144 329 -357zM525 345c0 137 -58 224 -158 224s-158 -87 -158 -224s59 -224 158 -224c100 0 158 87 158 224z"/>
    <glyph glyph-name="Ocircumflex" unicode="Ô" horiz-adv-x="735" d="M697 346c0 -213 -130 -359 -331 -359c-198 0 -328 144 -328 357c0 214 130 359 330 359s329 -144 329 -357zM525 345c0 137 -58 224 -158 224s-158 -87 -158 -224s59 -224 158 -224c100 0 158 87 158 224zM534 758l-89 -17l-77 62l-74 -58h-96l102 147h138z"/>
    <glyph glyph-name="apple" unicode="" horiz-adv-x="694" d="M644 -200h-208l-8 14h-163l-8 -14h-207v303c18 0 32 14 32 32c0 17 -14 32 -32 32v554h100l30 79h334l29 -79h101v-921zM400 563v-172h15v78h38v14h-38v66h43v14h-58zM184 563v-172h15v79h47v-79h15v172h-15v-79h-47v79h-15zM460 394c4 -2 15 -4 21 -4c20 0 31 11 31 36 v137h-16v-137c0 -16 -5 -22 -16 -22c-5 0 -15 3 -20 6v-16zM523 323v-46h8v13l7 7l16 -20h9l-19 26l18 20h-10l-21 -24v24h-8zM488 292l10 -15h9l-12 17c6 2 10 8 10 15c0 6 -6 14 -16 14h-21v-46h8v15h12zM426 276c15 0 24 11 24 24c0 12 -10 24 -24 24s-23 -12 -23 -24 c0 -13 9 -24 23 -24zM370 301l-13 22h-9l18 -29v-17h8v17l18 29h-9zM193 323v-46h33v7h-25v13h22v7h-22v12h25v7h-33zM132 323v-46h8v32l25 -32h7v46h-8v-32l-25 32h-7zM241 323l15 -47h8l10 34h1l11 -34h8l14 47h-8l-10 -35h-1l-10 35h-8l-11 -35h-1l-10 35h-8zM327 479 c-7 13 -12 22 -12 32s6 19 14 19s13 -9 13 -19c0 -12 -5 -21 -15 -32zM342 423c-3 -10 -11 -21 -18 -21c-10 0 -17 12 -17 27c0 11 6 24 15 33zM488 299h-12v17h11c6 0 10 -3 10 -8s-4 -9 -9 -9zM426 283c-9 0 -15 8 -15 17c0 8 6 17 15 17s16 -9 16 -17 c0 -9 -7 -17 -16 -17zM349 438l-16 31c13 12 23 26 23 42c0 15 -9 31 -27 31c-17 0 -28 -16 -28 -31s6 -24 14 -39c-15 -12 -23 -28 -23 -45c0 -22 13 -39 31 -39c13 0 22 12 27 24h1l12 -24l11 8l-16 30c5 12 10 25 13 39l-13 3c-2 -9 -6 -21 -9 -30z"/>
    <glyph glyph-name="Ograve" unicode="Ò" horiz-adv-x="735" d="M697 346c0 -213 -130 -359 -331 -359c-198 0 -328 144 -328 357c0 214 130 359 330 359s329 -144 329 -357zM525 345c0 137 -58 224 -158 224s-158 -87 -158 -224s59 -224 158 -224c100 0 158 87 158 224zM423 750h-99l-146 121l185 30z"/>
    <glyph glyph-name="Uacute" unicode="Ú" horiz-adv-x="688" d="M527 846l-147 -121h-96l60 151zM633 274c0 -192 -124 -285 -291 -285c-169 0 -287 91 -287 284v417h172v-416c0 -89 40 -141 117 -141c78 0 117 51 117 139v418h172v-416z"/>
    <glyph glyph-name="Ucircumflex" unicode="Û" horiz-adv-x="688" d="M633 274c0 -192 -124 -285 -291 -285c-169 0 -287 91 -287 284v417h172v-416c0 -89 40 -141 117 -141c78 0 117 51 117 139v418h172v-416zM511 742l-89 -17l-77 62l-74 -58h-96l102 147h138z"/>
    <glyph glyph-name="Ugrave" unicode="Ù" horiz-adv-x="688" d="M633 274c0 -192 -124 -285 -291 -285c-169 0 -287 91 -287 284v417h172v-416c0 -89 40 -141 117 -141c78 0 117 51 117 139v418h172v-416zM405 725h-99l-146 121l185 30z"/>
    </font>
</defs>
</svg>
