<?xml version="1.0" encoding="utf-8"?>
<!-- Generator: Adobe Illustrator 24.0.1, SVG Export Plug-In . SVG Version: 6.00 Build 0)  -->
<svg version="1.1" id="Layer_1" xmlns="http://www.w3.org/2000/svg" xmlns:xlink="http://www.w3.org/1999/xlink" x="0px" y="0px"
	 viewBox="0 0 792 612" style="enable-background:new 0 0 792 612;" xml:space="preserve">
<style type="text/css">
	.st0{fill-rule:evenodd;clip-rule:evenodd;fill:#CFCFCF;}
</style>
<g>
	<path class="st0" d="M403,318h-14c-1.1,0-2-0.9-2-2v-17h-1v-2h3v-1.5c0-0.8,0.7-1.5,1.5-1.5h11c0.8,0,1.5,0.7,1.5,1.5v1.5h3v2h-1
		v17C405,317.1,404.1,318,403,318L403,318z M403,299h-14v16.5c0,0.3,0.2,0.5,0.5,0.5c2.2,0,10.8,0,13,0c0.3,0,0.5-0.2,0.5-0.5V299
		L403,299z M393,302.1c0-0.7-0.4-1.2-1-1.2s-1,0.5-1,1.2v10.7c0,0.7,0.4,1.2,1,1.2s1-0.5,1-1.2V302.1L393,302.1z M397,302.1
		c0-0.7-0.4-1.2-1-1.2c-0.6,0-1,0.5-1,1.2v10.7c0,0.7,0.4,1.2,1,1.2c0.6,0,1-0.5,1-1.2V302.1L397,302.1z M401,302.1
		c0-0.7-0.4-1.2-1-1.2c-0.6,0-1,0.5-1,1.2v10.7c0,0.7,0.4,1.2,1,1.2c0.6,0,1-0.5,1-1.2V302.1L401,302.1z M401,296h-10v1h10V296
		L401,296z"/>
</g>
</svg>
